<svg id="Layer_1" data-name="Layer 1" xmlns="http://www.w3.org/2000/svg" xmlns:xlink="http://www.w3.org/1999/xlink" viewBox="0 0 429.61 101.96">
  <defs>
    <linearGradient id="linear-gradient" x1="30" y1="0.04" x2="30" y2="102.04" gradientTransform="matrix(1, 0, 0, -1, 0, 102)" gradientUnits="userSpaceOnUse">
      <stop offset="0" stop-color="#b22c2b"/>
      <stop offset="0.09" stop-color="#c23c3a"/>
      <stop offset="0.22" stop-color="#d54e4b"/>
      <stop offset="0.38" stop-color="#e25b57"/>
      <stop offset="0.59" stop-color="#ea635e"/>
      <stop offset="1" stop-color="#ec6560"/>
    </linearGradient>
    <linearGradient id="linear-gradient-2" x1="29.43" y1="27.63" x2="29.43" y2="49.91" gradientTransform="matrix(1, 0, 0, -1, 0, 102)" gradientUnits="userSpaceOnUse">
      <stop offset="0" stop-color="#da544d"/>
      <stop offset="0.43" stop-color="#cc4641"/>
      <stop offset="1" stop-color="#bd3734"/>
    </linearGradient>
    <linearGradient id="linear-gradient-3" x1="327.19" y1="284.51" x2="327.19" y2="182.51" gradientTransform="matrix(-1, 0, 0, 1, 726.8, -182.53)" gradientUnits="userSpaceOnUse">
      <stop offset="0" stop-color="#b22c2b"/>
      <stop offset="0.1" stop-color="#bb3533"/>
      <stop offset="0.45" stop-color="#d64f4c"/>
      <stop offset="0.76" stop-color="#e65f5b"/>
      <stop offset="1" stop-color="#ec6560"/>
    </linearGradient>
    <linearGradient id="linear-gradient-4" x1="326.62" y1="210.12" x2="326.62" y2="232.4" gradientTransform="matrix(-1, 0, 0, 1, 726.8, -182.53)" gradientUnits="userSpaceOnUse">
      <stop offset="0" stop-color="#e55e56"/>
      <stop offset="0.34" stop-color="#dc554e"/>
      <stop offset="0.9" stop-color="#c23c38"/>
      <stop offset="1" stop-color="#bd3734"/>
    </linearGradient>
    <linearGradient id="linear-gradient-5" x1="345.45" y1="9.25" x2="345.45" y2="92.75" gradientTransform="matrix(1, 0, 0, -1, 0, 102)" gradientUnits="userSpaceOnUse">
      <stop offset="0" stop-color="#bd3734"/>
      <stop offset="1" stop-color="#ec645e"/>
    </linearGradient>
  </defs>
  <g id="jetx">
    <path d="M106.39,16a6,6,0,0,1,1.74-4.8A6.69,6.69,0,0,1,113,9.4q7.2,0,7.2,6.36,0,5,.24,15.54t.24,16q0,9.72-.12,14.28-.84,30.84-27.12,30.84A23.69,23.69,0,0,1,84,90.5a27.29,27.29,0,0,1-7-4.08q-3.36-3-3.36-6.36a6.47,6.47,0,0,1,1.62-4.44,5.37,5.37,0,0,1,4.14-1.8q2.28,0,6.72,3.36a12.27,12.27,0,0,0,7.8,2.76q8,0,10.62-6.84t2.58-21Z" style="fill: #4591cf"/>
    <path d="M152.05,77a14.32,14.32,0,0,0,10.14,3.84,22.19,22.19,0,0,0,11.64-3.24A9.56,9.56,0,0,1,178.51,76,5,5,0,0,1,182.35,78,6.3,6.3,0,0,1,184,82.28q0,3.12-3.6,5.52-7.44,4.8-19.32,4.8a25.73,25.73,0,0,1-18.9-7.74,26.37,26.37,0,0,1-8-18.66,31,31,0,0,1,8-21.54,25.43,25.43,0,0,1,19.62-8.82,24,24,0,0,1,17.22,6.72q7,6.72,7,15.36,0,5.16-1.74,7.26t-7.62,2.22q-3,.12-6.84.12t-10.44.06q-6.6.06-11.88.06A13.57,13.57,0,0,0,152.05,77Zm.24-26.64a14.41,14.41,0,0,0-4.62,8.88q17.76,0,24.48-.48,1.44-.24,1.44-1.08a10.43,10.43,0,0,0-3.42-8,11.48,11.48,0,0,0-8.1-3.18,13.66,13.66,0,0,0-9.78,3.84Z" style="fill: #4591cf"/>
    <path d="M192,42.66a5.53,5.53,0,0,1,1.56-4.14,5.7,5.7,0,0,1,4.08-1.5h6.12l.24-8.76q.24-7.92,7.08-7.92,5.4,0,5.4,6,0,1.2-.12,4.86t-.12,5.7h10.32a5.17,5.17,0,0,1,4.08,1.32,5.68,5.68,0,0,1,1.44,4.2c0,3.76-1.66,5.64-5,5.64H216.19V69.18q0,5.76,1.44,8.58a5.07,5.07,0,0,0,4.92,2.82,10.32,10.32,0,0,0,3.12-.48,9.05,9.05,0,0,1,2.4-.48,4.18,4.18,0,0,1,3.48,1.68,6,6,0,0,1,1.32,3.84q0,3.84-2.64,5.4-3.24,1.8-9,1.8-17.76,0-17.76-21.48,0-2.88.18-10.74t.06-11.94h-6.6Q192,48.18,192,42.66Z" style="fill: #4591cf"/>
    <path d="M268.63,64.74l-17.52,24q-2.52,3.36-5.76,3.36a7.4,7.4,0,0,1-4.86-1.86A5.5,5.5,0,0,1,238.27,86a7.84,7.84,0,0,1,1.92-4.92l24.36-31.32q-.6-.84-22.8-28.68a8.19,8.19,0,0,1-2-4.8A5.77,5.77,0,0,1,242,11.88a7.4,7.4,0,0,1,4.92-2q3.24,0,6,3.72l19.92,26.64,20.28-27q2.64-3.48,6-3.48A7,7,0,0,1,304,11.68a5.61,5.61,0,0,1,2.1,4.2,7.37,7.37,0,0,1-1.68,4.32L281,49.84l23.76,29.88q2.88,3.6,2.88,5.88a5.68,5.68,0,0,1-2.38,4.4,7.68,7.68,0,0,1-5.1,2q-3.36,0-6.36-4.2L277.75,65.6l-4.92-6.24Z" style="fill: #4591cf"/>
  </g>
  <g id="left">
    <path d="M57.62,86.86A9,9,0,0,1,45,99.63l-42-42-.46-.45a9,9,0,0,1,0-12.46l.42-.41L44.39,2.93l.3-.31A9,9,0,0,1,57.56,15.19L21.74,51,57.07,86.34Z" style="fill: url(#linear-gradient)"/>
    <path d="M21.74,51c-5.84,5.7-8.34,12.84-6.11,18.23a11.23,11.23,0,0,0,3,4H44Z" style="fill: url(#linear-gradient-2)"/>
  </g>
  <g id="right">
    <path d="M372,15.1A9,9,0,0,1,384.64,2.33l42,42,.46.45a9,9,0,0,1,0,12.46l-.42.41L385.24,99l-.3.31a9,9,0,0,1-12.87-12.57L407.86,51,372.53,15.66Z" style="fill: url(#linear-gradient-3)"/>
    <path d="M407.86,51c5.83-5.7,8.34-12.85,6.11-18.23a11,11,0,0,0-3-4.05H385.58Z" style="fill: url(#linear-gradient-4)"/>
  </g>
  <line id="slash" x1="358.11" y1="9.25" x2="332.79" y2="92.75" style="fill: none;stroke-linecap: round;stroke-miterlimit: 10;stroke-width: 18px;stroke: url(#linear-gradient-5)"/>
</svg>
